<?xml version="1.0" encoding="utf-8"?>
<!-- Generator: Adobe Illustrator 27.9.0, SVG Export Plug-In . SVG Version: 6.00 Build 0)  -->
<svg version="1.1" id="Layer_1" xmlns="http://www.w3.org/2000/svg" xmlns:xlink="http://www.w3.org/1999/xlink" x="0px" y="0px"
	 viewBox="0 0 865 164" style="enable-background:new 0 0 865 164;" xml:space="preserve">
<style type="text/css">
	.st0{fill:#1B1B1B;}
</style>
<g>
	<path d="M24,52.7c3-9.6,7.5-18.1,13.6-25.5c6-7.4,13.6-13.3,22.7-17.7C69.4,5.2,80,3,92.1,3c12.1,0,22.6,2.2,31.7,6.6
		c9,4.4,16.6,10.3,22.6,17.7c6,7.4,10.6,15.9,13.6,25.5c3,9.6,4.5,19.7,4.5,30.4c0,10.6-1.5,20.7-4.5,30.4
		c-3,9.6-7.5,18.1-13.6,25.4c-6,7.3-13.6,13.2-22.6,17.5c-9,4.4-19.6,6.6-31.7,6.6c-12.1,0-22.6-2.2-31.8-6.6
		c-9.1-4.4-16.7-10.2-22.7-17.5c-6-7.3-10.6-15.8-13.6-25.4c-3-9.6-4.5-19.7-4.5-30.4C19.5,72.5,21,62.4,24,52.7z M37.5,107.8
		c2.2,8.1,5.7,15.4,10.3,21.7c4.7,6.4,10.7,11.5,18,15.4c7.3,3.9,16.1,5.8,26.3,5.8c10.2,0,18.9-1.9,26.2-5.8
		c7.2-3.9,13.2-9,17.9-15.4c4.7-6.4,8.1-13.6,10.3-21.7c2.2-8.1,3.3-16.3,3.3-24.7c0-8.5-1.1-16.7-3.3-24.8
		c-2.2-8-5.7-15.3-10.3-21.6c-4.7-6.4-10.6-11.5-17.9-15.4c-7.3-3.9-16-5.8-26.2-5.8c-10.2,0-18.9,1.9-26.3,5.8
		c-7.3,3.9-13.3,9-18,15.4c-4.7,6.4-8.1,13.6-10.3,21.6c-2.2,8-3.3,16.3-3.3,24.8C34.2,91.4,35.3,99.6,37.5,107.8z"/>
	<path d="M223.7,129.2c2.6,5.3,6.1,9.5,10.7,12.7c4.5,3.2,9.9,5.4,16,6.8c6.2,1.4,12.8,2,19.8,2c4,0,8.4-0.6,13.1-1.7
		c4.7-1.1,9.2-3,13.2-5.5c4.1-2.5,7.5-5.7,10.2-9.7c2.7-3.9,4.1-8.7,4.1-14.3c0-4.3-1-8-2.9-11.2c-1.9-3.2-4.5-5.8-7.5-8
		c-3.1-2.2-6.5-3.9-10.2-5.3c-3.7-1.4-7.4-2.5-11-3.3L245,83.3c-4.5-1.1-8.8-2.6-13-4.3c-4.2-1.7-7.9-4-11.1-6.9
		c-3.2-2.9-5.7-6.4-7.6-10.6c-1.9-4.2-2.9-9.3-2.9-15.3c0-3.7,0.7-8.1,2.2-13.1c1.4-5,4.1-9.8,8.1-14.2c3.9-4.4,9.4-8.2,16.3-11.3
		c6.9-3.1,15.7-4.6,26.5-4.6c7.6,0,14.9,1,21.7,3c6.9,2,12.9,5,18.1,9c5.2,4,9.3,9,12.4,15c3.1,6,4.6,12.9,4.6,20.8h-14.6
		c-0.3-5.9-1.6-11-4-15.4c-2.4-4.4-5.5-8-9.3-11c-3.8-2.9-8.2-5.2-13.1-6.7c-5-1.5-10.2-2.3-15.6-2.3c-5,0-9.9,0.5-14.5,1.6
		c-4.7,1.1-8.8,2.8-12.3,5.2c-3.5,2.4-6.4,5.5-8.5,9.4c-2.2,3.9-3.2,8.7-3.2,14.4c0,3.6,0.6,6.7,1.8,9.4c1.2,2.7,2.9,4.9,5.1,6.8
		c2.2,1.9,4.6,3.4,7.4,4.5c2.8,1.2,5.8,2.1,8.9,2.8l37.5,9.3c5.5,1.4,10.6,3.2,15.4,5.3c4.8,2.1,9,4.7,12.7,7.8
		c3.7,3.1,6.5,6.9,8.6,11.3c2.1,4.5,3.1,9.8,3.1,16.1c0,1.7-0.2,4-0.5,6.9c-0.4,2.9-1.2,5.9-2.6,9.2c-1.4,3.2-3.3,6.5-5.8,9.8
		c-2.5,3.3-6,6.3-10.3,8.9c-4.4,2.7-9.8,4.8-16.3,6.5c-6.5,1.6-14.2,2.5-23.3,2.5s-17.4-1-25.2-3.1c-7.8-2.1-14.4-5.3-19.8-9.6
		c-5.5-4.3-9.7-9.8-12.6-16.6c-2.9-6.7-4.2-14.9-3.8-24.3H220C219.8,117.3,221.1,123.9,223.7,129.2z"/>
	<path d="M387.7,6.2v95.2c0,8.9,1,16.5,3,22.7c2,6.2,5,11.3,8.8,15.3c3.9,4,8.6,6.8,14.2,8.6c5.6,1.8,11.9,2.7,18.9,2.7
		c7.2,0,13.6-0.9,19.2-2.7c5.6-1.8,10.3-4.7,14.2-8.6c3.9-3.9,6.8-9,8.8-15.3c2-6.2,3-13.8,3-22.7V6.2h14.6v98.4
		c0,7.9-1.1,15.4-3.3,22.5c-2.2,7.1-5.7,13.3-10.6,18.6c-4.8,5.3-11,9.5-18.5,12.6c-7.5,3.1-16.7,4.6-27.5,4.6
		c-10.6,0-19.7-1.5-27.2-4.6c-7.5-3.1-13.7-7.3-18.5-12.6c-4.8-5.3-8.3-11.5-10.6-18.6c-2.2-7.1-3.3-14.6-3.3-22.5V6.2H387.7z"/>
	<path d="M564.1,6.2l89.6,130.1h0.4V6.2h14.6V160h-16.4L562.8,29.9h-0.4V160h-14.6V6.2H564.1z"/>
	<path d="M786.7,6.2L847,160h-15.7l-18.7-47.8h-70L724.1,160h-15.5L770.4,6.2H786.7z M807.6,99.7l-29.7-78.8l-30.8,78.8H807.6z"/>
</g>
<g>
	<path class="st0" d="M71.6,39.4c7.2,6.4,14.5,12.9,21.7,19.3c10,8.9,19.9,17.9,29.9,26.8c0.9,0.8,1.8,1.7,2.5,2.8
		c1.7,2.5,0.8,5.4-1.8,6.7c-1.7,0.9-3.7,1.4-5.5,1.6c-1.9,0.2-18.7,0-24.5-0.1c-1.2,0-2.4,0.5-3.3,1.4c-3.5,4-12.9,14.7-14.2,15.7
		c-1.3,1.1-2.7,2.2-4.2,3c-4.6,2.4-8.3,0.1-8.1-5.1c0.4-8.7,0.9-17.4,1.4-26.1c0.4-6.5,0.7-12.9,1.1-19.4c0.4-7.8,0.9-15.6,1.2-23.3
		c0.1-1.6,0.7-2.8,2.2-3.5C70.6,39.2,71,39.3,71.6,39.4z M115.8,103.9h-14.1V118h14.1V103.9z"/>
</g>
</svg>
